PathFileType	4	(X/Y/Z)	E:\Studenten\Marcel_BSc\Hannes_22_01_2025\22-01-2025\static_01.trc
DataRate	CameraRate	NumFrames	NumMarkers	Units	OrigDataRate	OrigDataStartFrame	OrigNumFrames
200.0	200.0	6	59	mm	200.0	435	497	
Frame#	Time	FHD			LBHD			RBHD			RBAR			LBAR			RASI			RSACR			LSACR			LASI			USACR			C7			CLAV			T10			RSHO			LSHO			LTHI1			LTHI3			LTHI2			LLFC			LMFC			LTIB1			LTIB2			LTIB3			LMMAL			LLMAL			LHEE			LMT1			LMT5			LMT3			RTHI1			RTHI2			RTHI3			RLFC			RMFC			RTIB1			RTIB3			RTIB2			RLMAL			RMMAL			RHEE			RMT5			RMT1			RMT3			LMEP			LLEP			LDUPA			LMUPA			LUUPA			LUL			LRAD			LRFIN			RUL			RRAD			RUFIN			RMEP			RLEP			RMUPA			RDUPA			RUUPA			
		X1	Y1	Z1	X2	Y2	Z2	X3	Y3	Z3	X4	Y4	Z4	X5	Y5	Z5	X6	Y6	Z6	X7	Y7	Z7	X8	Y8	Z8	X9	Y9	Z9	X10	Y10	Z10	X11	Y11	Z11	X12	Y12	Z12	X13	Y13	Z13	X14	Y14	Z14	X15	Y15	Z15	X16	Y16	Z16	X17	Y17	Z17	X18	Y18	Z18	X19	Y19	Z19	X20	Y20	Z20	X21	Y21	Z21	X22	Y22	Z22	X23	Y23	Z23	X24	Y24	Z24	X25	Y25	Z25	X26	Y26	Z26	X27	Y27	Z27	X28	Y28	Z28	X29	Y29	Z29	X30	Y30	Z30	X31	Y31	Z31	X32	Y32	Z32	X33	Y33	Z33	X34	Y34	Z34	X35	Y35	Z35	X36	Y36	Z36	X37	Y37	Z37	X38	Y38	Z38	X39	Y39	Z39	X40	Y40	Z40	X41	Y41	Z41	X42	Y42	Z42	X43	Y43	Z43	X44	Y44	Z44	X45	Y45	Z45	X46	Y46	Z46	X47	Y47	Z47	X48	Y48	Z48	X49	Y49	Z49	X50	Y50	Z50	X51	Y51	Z51	X52	Y52	Z52	X53	Y53	Z53	X54	Y54	Z54	X55	Y55	Z55	X56	Y56	Z56	X57	Y57	Z57	X58	Y58	Z58	X59	Y59	Z59	
435	2.17	63.24424	1708.6422	-1224.3359	147.47476	1680.524	-1123.1241	159.97183	1675.127	-1317.3497	-530.28668	25.800341	-2111.322	-499.42062	36.286469	112.27454	110.82523	987.992	-1330.0089	303.21057	1050.2556	-1255.9689	303.63623	1055.5657	-1148.5848	116.75057	995.15967	-1061.0337	304.21463	1074.6511	-1201.566	294.0209	1171.1525	-1202.1831	122.17075	1449.465	-1209.3077	292.41595	1493.6904	-1209.0615	272.065	1484.6434	-1368.571	270.0217	1492.749	-1048.4955	212.776	792.0506	-982.80939	183.87395	732.06982	-973.32916	233.94908	729.04938	-982.18854	223.28113	504.27908	-998.60962	206.68336	464.96008	-1106.5514	319.62173	278.08951	-966.61517	269.22614	267.91684	-961.66425	306.00928	214.12891	-968.3175	277.47742	86.259026	-1054.3739	309.64822	80.155273	-965.99023	354.49207	22.059217	-1015.2946	142.8336	40.011665	-996.74738	185.69754	26.610357	-915.65955	149.05482	30.118404	-948.57776	222.79871	782.0755	-1410.2925	190.93913	724.29645	-1417.4651	240.36617	717.78424	-1408.9508	218.23889	494.66852	-1384.0612	196.08464	477.44424	-1277.5061	294.97394	274.31094	-1422.8419	244.89343	277.41248	-1414.2852	268.62509	215.67357	-1413.9906	295.13217	79.94236	-1409.8866	257.51721	83.34771	-1322.6989	343.88861	30.214033	-1366.2795	184.10762	27.37499	-1460.9674	124.55278	36.019279	-1389.7256	135.7751	28.37034	-1438.1749	213.43982	1358.9149	-771.40973	275.83365	1449.4673	-764.07501	284.88553	1442.7849	-830.85168	250.68062	1484.5388	-889.7196	288.16602	1451.5546	-892.13837	194.97156	1482.7734	-522.13989	152.78294	1503.3861	-536.78351	110.22113	1493.9014	-436.40823	212.14537	1466.4615	-1903.5349	168.11635	1489.7954	-1885.1379	150.95233	1484.0293	-1997.906	230.65057	1350.821	-1640.5283	293.26965	1440.6478	-1655.7499	308.64813	1426.9982	-1550.5513	287.58008	1451.7144	-1588.001	288.04926	1471.6683	-1511.3049
436	2.175	63.208157	1708.6379	-1224.3068	147.46509	1680.5111	-1123.1088	159.96214	1675.1353	-1317.3306	-530.46576	25.678719	-2110.9946	-499.43094	36.28075	112.27831	110.82159	987.98419	-1329.9941	303.20804	1050.2676	-1255.9592	303.6456	1055.5682	-1148.5834	116.78808	995.15283	-1061.0375	304.22717	1074.6508	-1201.5692	294.02652	1171.1553	-1202.1873	122.17624	1449.4705	-1209.286	292.42154	1493.6885	-1209.0521	272.07129	1484.6356	-1368.5793	270.00879	1492.7484	-1048.4899	212.86443	792.2467	-982.862	183.88702	732.07385	-973.32758	233.97723	729.05023	-982.20312	223.26671	504.2742	-998.60913	206.6869	464.96384	-1106.5469	319.62305	278.08676	-966.61273	269.21371	267.92422	-961.65057	306.01459	214.14915	-968.32379	277.48187	86.249733	-1054.3789	309.65656	80.156456	-965.99139	354.50003	22.050341	-1015.3067	142.83023	40.011536	-996.75323	185.69373	26.611099	-915.66278	149.05971	30.109566	-948.58533	222.81499	782.06592	-1410.3029	190.94762	724.29413	-1417.4631	240.38625	717.76886	-1408.9395	218.24205	494.65698	-1384.0492	196.08838	477.44827	-1277.5098	294.97067	274.3168	-1422.8291	244.87741	277.43472	-1414.2622	268.63245	215.65611	-1413.9952	295.13181	79.948204	-1409.885	257.50458	83.351036	-1322.6954	343.87103	30.210989	-1366.3152	184.11559	27.366447	-1460.9615	124.54624	36.015923	-1389.7291	135.7773	28.358625	-1438.1733	213.44727	1358.8782	-771.40747	275.82672	1449.4548	-764.06598	284.89005	1442.7615	-830.84473	250.68405	1484.5303	-889.70941	288.173	1451.5536	-892.12988	194.9465	1482.7806	-522.15082	152.76627	1503.3684	-536.78937	110.19627	1493.8739	-436.41345	212.11856	1466.4539	-1903.526	168.09369	1489.7852	-1885.119	150.91864	1484.0005	-1997.902	230.63631	1350.811	-1640.5161	293.2598	1440.6462	-1655.7451	308.63992	1426.9919	-1550.5387	287.56625	1451.7229	-1587.9797	288.03912	1471.6528	-1511.3002
437	2.18	63.216991	1708.6189	-1224.2858	147.45787	1680.4994	-1123.0786	159.96068	1675.1311	-1317.304	-530.26709	25.7645	-2111.3145	-499.42194	36.273945	112.27003	110.82129	987.99725	-1329.9897	303.21808	1050.2719	-1255.9458	303.65656	1055.5698	-1148.571	116.74502	995.16071	-1061.0551	304.23193	1074.6544	-1201.5483	294.02591	1171.15	-1202.1902	122.17948	1449.4602	-1209.2836	292.41501	1493.6969	-1209.0302	272.06238	1484.6458	-1368.5651	270.00787	1492.733	-1048.4767	212.78522	792.01428	-982.81927	183.88193	732.05939	-973.33392	233.96764	729.0744	-982.20642	223.26093	504.28772	-998.60931	206.68677	464.95328	-1106.5503	319.62756	278.09238	-966.60132	269.22485	267.9111	-961.66534	306.01358	214.13954	-968.30994	277.47421	86.257195	-1054.3711	309.64731	80.153915	-965.987	354.50754	22.05842	-1015.3083	142.8398	40.009861	-996.74768	185.6929	26.616201	-915.65106	149.06224	30.117479	-948.57654	222.82712	782.06793	-1410.2957	190.95282	724.30566	-1417.4702	240.40529	717.76556	-1408.959	218.24913	494.66602	-1384.0651	196.08737	477.43625	-1277.5159	294.97781	274.32162	-1422.8358	244.92206	277.42587	-1414.3778	268.63269	215.65814	-1413.99	295.13959	79.938683	-1409.8953	257.51144	83.342346	-1322.6937	343.86322	30.17947	-1366.3373	184.10695	27.358656	-1460.9581	124.54333	36.014824	-1389.7207	135.78076	28.350426	-1438.1652	213.4653	1358.8524	-771.40649	275.83743	1449.4486	-764.05457	284.90103	1442.7404	-830.82898	250.68805	1484.5161	-889.71313	288.17407	1451.5436	-892.12738	194.92319	1482.7625	-522.14349	152.75104	1503.3511	-536.79077	110.17216	1493.853	-436.4086	212.06863	1466.4764	-1903.4532	168.05382	1489.7673	-1885.114	150.87033	1484.0002	-1997.8939	230.60486	1350.7854	-1640.5217	293.24652	1440.6462	-1655.7306	308.63376	1426.9927	-1550.531	287.57666	1451.7078	-1587.9877	288.03082	1471.6434	-1511.2889
438	2.185	63.226997	1708.5984	-1224.2875	147.4549	1680.4923	-1123.0471	159.94139	1675.1531	-1317.2839	-530.20935	25.823889	-2111.4629	-499.42319	36.275856	112.27641	110.84285	987.99774	-1330.0138	303.22662	1050.2549	-1255.9431	303.66516	1055.5715	-1148.5714	116.78726	995.14392	-1061.0441	304.23764	1074.6479	-1201.5419	294.04187	1171.1356	-1202.1858	122.1896	1449.4399	-1209.2782	292.42224	1493.7058	-1209.0254	272.05463	1484.6509	-1368.5583	270.01907	1492.7087	-1048.4711	212.79938	792.01636	-982.80688	183.89369	732.05573	-973.34119	233.95935	729.047	-982.20825	223.30031	504.2782	-998.6084	206.70425	464.95212	-1106.5504	319.63055	278.07974	-966.59973	269.22134	267.89941	-961.66565	306.01474	214.13361	-968.3053	277.47986	86.256516	-1054.3645	309.65125	80.155342	-965.98322	354.50677	22.04649	-1015.2946	142.84299	39.995384	-996.74451	185.68887	26.607912	-915.66089	149.07826	30.098413	-948.58398	222.83867	782.07715	-1410.297	190.96925	724.30023	-1417.4768	240.41917	717.78564	-1408.9542	218.24811	494.66696	-1384.0551	196.09482	477.43832	-1277.5184	294.97595	274.31552	-1422.8405	244.82465	277.65286	-1414.0908	268.6297	215.67183	-1414.004	295.13974	79.951485	-1409.8909	257.5083	83.332657	-1322.7037	343.87662	30.186573	-1366.3007	184.12231	27.364662	-1460.9628	124.55324	36.015987	-1389.7201	135.78065	28.354984	-1438.1683	213.47847	1358.8397	-771.39056	275.83795	1449.4451	-764.04749	284.88208	1442.7249	-830.823	250.69502	1484.5071	-889.70392	288.18188	1451.5249	-892.12622	194.91884	1482.7355	-522.14612	152.7395	1503.3409	-536.78033	110.14587	1493.827	-436.41302	212.03838	1466.4712	-1903.432	168.03047	1489.7468	-1885.1216	150.81844	1483.9979	-1997.8702	230.63753	1350.7822	-1640.5229	293.23703	1440.6525	-1655.7338	308.62769	1426.9875	-1550.5341	287.56866	1451.7142	-1587.9757	288.02051	1471.6339	-1511.2805
439	2.19	63.229515	1708.5802	-1224.2694	147.43214	1680.4736	-1123.0272	159.93057	1675.1643	-1317.2518	-530.18762	25.863276	-2111.5508	-499.41464	36.265217	112.26689	110.84019	988.00513	-1330.0052	303.23828	1050.2521	-1255.9387	303.67102	1055.5718	-1148.5708	116.77837	995.1402	-1061.0513	304.24231	1074.6392	-1201.5371	294.04401	1171.1368	-1202.1827	122.19144	1449.4149	-1209.274	292.41159	1493.7063	-1209.0126	272.04514	1484.6542	-1368.5465	270.01956	1492.6857	-1048.4594	212.79912	792.01312	-982.80725	183.90746	732.05035	-973.33331	233.97408	729.03589	-982.21405	223.30409	504.25027	-998.61053	206.715	464.96017	-1106.5555	319.63916	278.05334	-966.60468	269.25046	267.90344	-961.67743	306.03204	214.12311	-968.31842	277.49243	86.251122	-1054.3685	309.66418	80.137032	-965.98859	354.49442	22.031502	-1015.2863	142.84045	40.002388	-996.74841	185.69337	26.602251	-915.6499	149.07562	30.088255	-948.58295	222.85196	782.07825	-1410.3044	190.98485	724.31848	-1417.4779	240.41995	717.80267	-1408.9524	218.25259	494.67218	-1384.0538	196.09818	477.44324	-1277.5242	294.97559	274.33957	-1422.843	244.91951	277.41562	-1414.3611	268.64517	215.6655	-1413.9949	295.13165	79.959488	-1409.9006	257.51398	83.329681	-1322.6945	343.85236	30.191116	-1366.3558	184.11397	27.375242	-1460.96	124.54664	36.009212	-1389.7216	135.77098	28.364948	-1438.1669	213.49815	1358.8165	-771.38788	275.83347	1449.428	-764.02777	284.89871	1442.7153	-830.81348	250.69565	1484.4938	-889.7005	288.18121	1451.5054	-892.10657	194.90019	1482.7158	-522.11688	152.72586	1503.3087	-536.78058	110.12611	1493.7982	-436.40479	211.97305	1466.4852	-1903.4001	167.99115	1489.7402	-1885.0803	150.75487	1483.9969	-1997.8512	230.6263	1350.7694	-1640.524	293.22678	1440.6461	-1655.7217	308.62152	1426.9824	-1550.5228	287.56122	1451.6997	-1587.9587	288.01718	1471.6331	-1511.275
440	2.195	63.189686	1708.5828	-1224.2252	147.41695	1680.4514	-1122.9855	159.89915	1675.1713	-1317.2203	-530.27032	25.819525	-2111.2478	-499.40396	36.26366	112.25659	110.85134	988.01001	-1330.0198	303.2356	1050.2576	-1255.9298	303.67496	1055.5636	-1148.5693	116.78962	995.11713	-1061.049	304.25461	1074.6379	-1201.5294	294.04135	1171.1134	-1202.1917	122.18904	1449.4082	-1209.2515	292.40475	1493.7109	-1209.0029	272.02991	1484.6675	-1368.5363	270.02802	1492.6649	-1048.4438	212.82071	791.9859	-982.79639	183.91014	732.0379	-973.33026	233.96927	729.01953	-982.20209	223.32027	504.22513	-998.61395	206.71495	464.961	-1106.5468	319.6217	278.03409	-966.60626	269.2197	267.90817	-961.66919	306.03583	214.10057	-968.32123	277.4884	86.257584	-1054.3794	309.64795	80.132507	-965.96613	354.49887	22.023701	-1015.2553	142.83585	39.997559	-996.7395	185.6947	26.592463	-915.64935	149.07516	30.084929	-948.57849	222.85202	782.08478	-1410.3049	190.98979	724.31873	-1417.4791	240.42311	717.8103	-1408.9688	218.26231	494.67477	-1384.0587	196.09503	477.4382	-1277.521	294.98782	274.32199	-1422.8424	244.90691	277.43707	-1414.3094	268.63739	215.66977	-1414.0035	295.14258	79.96077	-1409.9081	257.51801	83.316429	-1322.6945	343.86526	30.191183	-1366.3186	184.11919	27.373566	-1460.958	124.5575	35.998123	-1389.7239	135.76227	28.369654	-1438.1653	213.50566	1358.8102	-771.3775	275.83264	1449.4161	-764.01068	284.91846	1442.6976	-830.79297	250.69275	1484.4734	-889.68475	288.17801	1451.4958	-892.09235	194.90167	1482.7045	-522.09784	152.7074	1503.2863	-536.76624	110.09638	1493.7617	-436.40271	211.93193	1466.4873	-1903.4053	167.93785	1489.7343	-1885.0504	150.701	1483.9818	-1997.8341	230.64984	1350.7548	-1640.5009	293.22339	1440.6407	-1655.7239	308.61172	1426.9843	-1550.5074	287.57074	1451.6696	-1587.9608	288.00775	1471.6315	-1511.2584
